<svg xmlns="http://www.w3.org/2000/svg" viewBox="0 0 24 24">
  <path fill="#1877F2" d="M24 12.07C24 5.41 18.63 0 12 0S0 5.4 0 12.07C0 18.1 4.39 23.1 10.13 24v-8.44H7.08v-3.49h3.04V9.41c0-3 1.79-4.66 4.53-4.66 1.31 0 2.68.24 2.68.24v2.96h-1.51c-1.5 0-1.96.93-1.96 1.88v2.24h3.32l-.53 3.49h-2.8V24C19.62 23.1 24 18.1 24 12.07z"/>
  <path fill="#fff" d="M15.44 15.56l.53-3.49h-3.32V9.82c0-.95.46-1.88 1.96-1.88h1.51V5.2s-1.37-.24-2.68-.24c-2.74 0-4.53 1.66-4.53 4.66v2.45H7.08v3.49h3.04V24c.61.1 1.24.15 1.88.15.65 0 1.28-.05 1.88-.15v-8.44h2.8z"/>
</svg>
